<svg width="32" height="32" viewBox="0 0 32 32" fill="none" xmlns="http://www.w3.org/2000/svg">
<g clip-path="url(#clip0_498_242)">
<path d="M10.3681 5.24805L1.34414 14.3361C1.21614 14.4641 1.15214 14.5921 1.02414 14.7201C0.960136 14.7841 0.960136 14.8481 0.896136 14.9121C0.832136 14.9761 0.832136 15.0401 0.768136 15.1681C0.768136 15.2321 0.704136 15.2961 0.704136 15.4241C0.704136 15.4881 0.640136 15.5521 0.640136 15.6161L0.640136 16.0001C0.640136 16.1281 0.640136 16.3201 0.704136 16.4481C0.704136 16.5121 0.768136 16.5761 0.768136 16.6401C0.768136 16.7041 0.832136 16.7681 0.832136 16.8321C0.832136 16.8961 0.896136 16.9601 0.960136 17.0241C0.960136 17.2161 1.02414 17.2801 1.02414 17.2801C1.08814 17.4081 1.21614 17.5361 1.34414 17.6641L10.3681 26.7521C10.8161 27.2001 11.3921 27.4561 12.0321 27.4561C12.6721 27.4561 13.2481 27.2001 13.6961 26.7521C14.1441 26.3041 14.4001 25.7281 14.4001 25.0881C14.4001 24.4481 14.1441 23.8721 13.6961 23.4241L8.70414 18.4321L28.9921 18.4321C30.2721 18.4321 31.3601 17.3441 31.3601 16.0641C31.3601 14.7841 30.2721 13.6961 28.9921 13.6961L8.70414 13.6961L13.6961 8.70405C14.1441 8.25605 14.4001 7.68005 14.4001 7.04005C14.4001 6.40005 14.1441 5.82405 13.6961 5.37605C13.2481 4.92805 12.6721 4.67205 12.0321 4.67205C11.4561 4.60805 10.8161 4.80005 10.3681 5.24805Z" fill="#22242C"/>
</g>
<defs>
<clipPath id="clip0_498_242">
<rect width="32" height="32" fill="white" transform="translate(0 32) rotate(-90)"/>
</clipPath>
</defs>
</svg>
